# xmcd
#
# Track frame offsets:
#	183
#	12555
#	22085
#	33133
#	45298
#	58565
#	70780
#	82368
#	94910
#	106995
#	118488
#	129323
#	141258
#	153753
#	167880
#	180853
#	192003
#	201858
#
# Disc length: 2849 seconds
#
# Revision: 1
# Processed by: cddbd v1.5.1PL0 Copyright (c) Steve Scherf et al.
# Submitted via: EasyCDDAExtractor 7.0.5.1
#
DISCID=f20b1f12
DTITLE=Guy Mitchell - The Very Best Of
DYEAR=1991
DGENRE=Oldies
TTITLE0=My trully, trully fair
TTITLE1=Knee deep in the blues
TTITLE2=Cloud Lucky seven
TTITLE3=Music, music, music
TTITLE4=She wears red feathers
TTITLE5=The roving king
TTITLE6=Pretty little black eyed Suzie
TTITLE7=Pittsburgh Pennsylvania
TTITLE8=Chick a boom
TTITLE9=Heartaches by the number
TTITLE10=Singing the blues
TTITLE11=Feet up
TTITLE12=Side by side
TTITLE13=Sparrow in the tree top
TTITLE14=My shoes keep walking back
TTITLE15=Call Rosie on the phone
TTITLE16=Rockabilly
TTITLE17=My heart cries for you
EXTD=
EXTT0=
EXTT1=
EXTT2=
EXTT3=
EXTT4=
EXTT5=
EXTT6=
EXTT7=
EXTT8=
EXTT9=
EXTT10=
EXTT11=
EXTT12=
EXTT13=
EXTT14=
EXTT15=
EXTT16=
EXTT17=
PLAYORDER=
